<mxfile host="app.diagrams.net" modified="2023-09-19T07:23:49.776Z" agent="Mozilla/5.0 (Macintosh; Intel Mac OS X 10_15_7) AppleWebKit/605.1.15 (KHTML, like Gecko) Version/16.6 Safari/605.1.15" etag="9m-Hls1t-aGUAExM4_hO" version="21.7.5" type="github">
  <diagram name="HI" id="k34dkEHl8TcmAmPx5WOQ">
    <mxGraphModel dx="545" dy="465" grid="1" gridSize="10" guides="1" tooltips="1" connect="1" arrows="1" fold="1" page="1" pageScale="1" pageWidth="827" pageHeight="1169" math="0" shadow="0">
      <root>
        <mxCell id="0" />
        <mxCell id="1" parent="0" />
        <mxCell id="z2xfztjnDWXLe2fr4Zph-4" value="Store ( Root reducer )" style="shape=cylinder3;whiteSpace=wrap;html=1;boundedLbl=1;backgroundOutline=1;size=15;fontSize=16;" vertex="1" parent="1">
          <mxGeometry x="370" y="210" width="130" height="80" as="geometry" />
        </mxCell>
        <mxCell id="z2xfztjnDWXLe2fr4Zph-5" value="A" style="swimlane;whiteSpace=wrap;html=1;fontSize=16;" vertex="1" parent="1">
          <mxGeometry x="550" y="100" width="200" height="200" as="geometry">
            <mxRectangle x="520" y="70" width="180" height="30" as="alternateBounds" />
          </mxGeometry>
        </mxCell>
        <mxCell id="z2xfztjnDWXLe2fr4Zph-6" value="Text" style="text;html=1;align=center;verticalAlign=middle;resizable=0;points=[];autosize=1;strokeColor=none;fillColor=none;fontSize=16;" vertex="1" parent="z2xfztjnDWXLe2fr4Zph-5">
          <mxGeometry x="10" y="30" width="50" height="30" as="geometry" />
        </mxCell>
      </root>
    </mxGraphModel>
  </diagram>
</mxfile>
